<svg version="1.1" id="Layer_1" xmlns="http://www.w3.org/2000/svg" xmlns:xlink="http://www.w3.org/1999/xlink" x="0px" y="0px"
	 width="100%" viewBox="0 0 1024 1024" enable-background="new 0 0 1024 1024" xml:space="preserve">
<path fill="#000000" opacity="1.000000" stroke="none" 
	d="
M673.188171,137.319031 
	C676.474792,127.182228 679.616516,117.413780 682.906250,107.185257 
	C688.799561,109.535332 693.454651,112.723244 698.125122,115.793701 
	C700.363464,117.265259 698.694702,119.467445 698.108582,121.256783 
	C692.200256,139.291733 686.228516,157.305893 680.333313,175.345078 
	C679.998962,176.368134 679.082581,177.407593 679.860535,178.723251 
	C681.795410,178.272736 682.804688,176.656738 684.057373,175.400314 
	C696.998779,162.420944 710.019409,149.517746 722.772156,136.355164 
	C725.787842,133.242584 728.109436,133.055496 731.761169,135.127640 
	C741.310364,140.546204 741.373230,140.376389 738.307800,151.103577 
	C733.643860,167.424805 729.019836,183.757431 724.394226,200.089554 
	C723.997131,201.491577 723.715027,202.926147 723.237061,204.948196 
	C725.988892,203.680542 727.312012,201.785202 728.828003,200.132614 
	C741.103394,186.751602 753.420776,173.408478 765.597961,159.938660 
	C767.841614,157.456818 769.767456,157.132278 772.422852,159.075348 
	C776.017151,161.705475 780.396118,163.175949 783.519714,166.124725 
	C783.622131,168.457825 782.099731,169.430405 780.991943,170.605438 
	C761.105591,191.699707 741.175842,212.753174 721.336121,233.891144 
	C719.401184,235.952667 717.903137,236.222382 715.338074,234.876678 
	C699.896973,226.775909 699.811401,226.829330 704.249207,210.309860 
	C707.529907,198.097733 710.971863,185.928955 714.321472,173.735245 
	C714.879944,171.702301 715.333923,169.640701 715.900085,167.331787 
	C713.265991,167.633484 712.351929,169.384277 711.121155,170.613083 
	C699.328796,182.386673 687.494873,194.121078 675.880005,206.068146 
	C673.177002,208.848480 671.074036,209.458603 667.835022,207.091904 
	C664.619385,204.742294 661.104675,202.765106 657.583008,200.882950 
	C654.689941,199.336761 654.138489,197.454712 655.135803,194.352081 
	C661.197510,175.493591 667.092590,156.581558 673.188171,137.319031 
z"/>
<path fill="#000000" opacity="1.000000" stroke="none" 
	d="
M167.912994,440.187927 
	C175.398346,450.818207 176.080536,462.543030 174.953857,474.500214 
	C174.033890,484.263702 172.325668,493.954651 171.472305,503.721893 
	C171.110794,507.859650 169.441208,508.788452 165.777863,508.345306 
	C147.270996,506.106628 128.752335,503.965698 110.240616,501.766785 
	C100.830589,500.649048 91.440346,499.341248 82.012550,498.408600 
	C78.486763,498.059845 77.266296,496.481415 77.772011,493.241821 
	C79.721535,480.753265 79.973534,468.030823 82.747147,455.664795 
	C87.686935,433.641083 101.792374,422.505035 124.412155,422.600769 
	C137.449188,422.655945 149.965347,424.630493 160.740356,432.783600 
	C163.413406,434.806213 165.822815,437.088043 167.912994,440.187927 
M97.328987,469.729156 
	C97.092545,471.541168 96.994453,473.384644 96.590805,475.158600 
	C95.756012,478.827423 96.684692,480.689453 100.855247,481.017303 
	C108.152649,481.590881 115.407753,482.694000 122.684341,483.543060 
	C133.721390,484.830811 144.761673,486.091003 155.907944,487.375305 
	C157.832932,482.317078 157.875534,477.432251 158.301727,472.707001 
	C159.730927,456.861145 153.507919,448.480316 140.813766,444.731445 
	C134.878799,442.978729 128.779922,442.226501 122.569267,442.327209 
	C109.897354,442.532684 102.345657,448.310516 99.066429,460.556061 
	C98.337257,463.278992 97.926430,466.087189 97.328987,469.729156 
z"/>
<path fill="#000000" opacity="1.000000" stroke="none" 
	d="
M875.280029,373.154480 
	C889.803772,369.222015 903.968628,365.524841 918.035278,361.486023 
	C922.028381,360.339508 923.796265,361.199402 924.773071,365.249573 
	C927.579773,376.887970 931.025696,388.380890 933.562439,400.073761 
	C938.260132,421.726898 928.986389,439.159271 908.470459,447.522064 
	C895.940186,452.629730 883.033752,455.442169 869.501099,451.512909 
	C858.470032,448.310028 851.178284,440.712372 846.430054,430.781036 
	C839.931274,417.188293 837.423096,402.274872 833.317871,387.893707 
	C832.298096,384.321136 835.241638,384.214874 837.357727,383.623505 
	C849.855774,380.130829 862.373047,376.707062 875.280029,373.154480 
M867.934204,429.692932 
	C870.022644,431.121735 872.320129,432.245544 874.791748,432.548523 
	C887.519470,434.108643 899.313171,431.456909 909.752136,423.903229 
	C914.918396,420.164886 917.269348,414.606293 917.582703,408.372406 
	C918.017334,399.724945 914.759644,391.851959 912.123474,383.377228 
	C893.318237,388.504242 874.915710,393.514069 856.520020,398.549164 
	C854.834717,399.010406 853.944336,400.261993 854.372253,401.956757 
	C856.886108,411.911591 858.421692,422.350739 867.934204,429.692932 
z"/>
<path fill="#000000" opacity="1.000000" stroke="none" 
	d="
M237.049576,786.101196 
	C231.228882,789.074097 225.674515,791.759216 220.278748,794.732178 
	C217.370026,796.334778 215.337845,796.256042 212.897186,793.668030 
	C204.982620,785.275574 204.892960,785.379333 210.867889,775.463684 
	C216.455856,766.190308 222.022003,756.903809 227.573761,747.608704 
	C228.220383,746.526123 228.714157,745.352112 229.660172,743.456177 
	C222.976562,746.132446 217.831985,749.753967 212.456863,752.942078 
	C205.722946,756.936096 198.973190,760.905212 192.298065,764.995728 
	C189.969299,766.422852 188.133621,766.570984 186.190338,764.332031 
	C183.594833,761.341553 180.776093,758.544861 178.337601,755.965698 
	C178.772232,753.282227 180.578476,752.812622 181.951035,752.030518 
	C200.042938,741.722717 218.212479,731.549927 236.234787,721.122437 
	C239.636169,719.154358 241.764908,719.427856 244.313766,722.368103 
	C255.766556,735.579529 255.354538,729.822693 246.552933,744.808411 
	C240.841248,754.533142 234.755371,764.038208 229.588196,774.543823 
	C233.802170,772.422302 238.038773,770.344299 242.225403,768.170105 
	C250.948151,763.640198 259.693512,759.149475 268.322205,754.445679 
	C270.980499,752.996582 272.739532,753.290955 274.876526,755.404907 
	C285.659149,766.071655 285.672760,766.001099 277.089661,778.687195 
	C267.194458,793.312622 257.286407,807.930603 247.568024,822.673279 
	C245.243011,826.200195 243.626221,826.853210 240.493118,823.453735 
	C232.489212,814.769287 232.353256,814.874084 239.175018,805.037048 
	C245.805481,795.476013 252.465775,785.935730 258.392059,775.361267 
	C251.388687,778.885254 244.385315,782.409302 237.049576,786.101196 
z"/>
<path fill="#000000" opacity="1.000000" stroke="none" 
	d="
M782.673096,300.097687 
	C781.117126,297.556488 782.534851,296.454010 784.184998,295.371399 
	C809.517639,278.752136 834.863892,262.153595 860.141052,245.450378 
	C863.286072,243.372131 864.963928,244.114380 866.948669,247.068176 
	C874.651245,258.531281 874.735596,258.473938 863.245667,265.988007 
	C857.275696,269.892212 851.306885,273.798248 845.447754,277.631317 
	C845.829529,279.639130 847.243958,279.431549 848.243835,279.759247 
	C868.022034,286.241486 874.712524,307.716919 861.580750,323.800110 
	C853.266907,333.982513 842.673889,341.141998 829.460388,343.463806 
	C810.127258,346.860931 794.315002,330.748413 797.753845,311.400787 
	C797.836853,310.933777 797.764343,310.439178 797.764343,309.940857 
	C796.164734,309.434631 795.166870,310.536957 794.141113,311.202271 
	C791.969971,312.610504 790.465881,312.078735 789.152527,310.028137 
	C787.087708,306.804413 784.955017,303.624176 782.673096,300.097687 
M829.042236,289.381622 
	C822.133667,292.155365 815.828796,295.815979 811.738525,302.284882 
	C808.147583,307.963898 808.591919,313.760193 812.659424,319.022095 
	C816.677917,324.220551 822.084290,325.847870 828.645691,323.831177 
	C834.496948,322.032806 839.482483,318.762268 843.875488,314.599121 
	C850.144104,308.658539 851.228088,303.043945 847.612671,296.272064 
	C844.047668,289.594879 838.119690,287.234650 829.042236,289.381622 
z"/>
<path fill="#000000" opacity="1.000000" stroke="none" 
	d="
M773.839722,767.190796 
	C783.318848,778.405701 792.489563,789.415588 801.854004,800.258301 
	C804.406616,803.213806 805.155457,805.360168 801.367310,807.828003 
	C799.158813,809.266846 797.257996,811.225281 795.376404,813.107422 
	C792.637695,815.846802 790.193359,816.526489 787.820190,812.710022 
	C787.330139,811.921875 786.447693,811.377747 785.226013,810.234497 
	C784.966614,819.182922 782.123718,826.277039 775.478577,831.640137 
	C766.006897,839.284485 755.743286,840.515564 745.233459,834.659180 
	C733.360229,828.043274 724.672302,818.186096 720.120361,805.283630 
	C714.530273,789.438538 723.618225,772.943298 739.829224,768.434509 
	C742.806885,767.606323 745.712402,767.782776 749.029236,768.205444 
	C748.642578,765.883911 746.972351,764.682617 745.790527,763.260742 
	C740.571838,756.982056 735.436523,750.619141 729.920837,744.608093 
	C726.970520,741.392761 727.557434,739.531128 730.696411,736.996582 
	C740.926697,728.736145 740.853516,728.643188 749.562805,738.820435 
	C757.578064,748.186707 765.590515,757.555298 773.839722,767.190796 
M749.885864,814.664734 
	C757.272278,819.937927 762.626343,820.364075 768.613464,816.155518 
	C774.327881,812.138550 776.660217,806.060852 774.327393,799.526733 
	C771.485840,791.567566 766.143311,785.434998 758.681152,781.465515 
	C753.039795,778.464661 746.231934,779.858948 741.659607,784.374146 
	C737.200134,788.778137 736.234253,794.281067 738.875732,800.415283 
	C741.224609,805.870056 744.897827,810.331055 749.885864,814.664734 
z"/>
<path fill="#000000" opacity="1.000000" stroke="none" 
	d="
M392.111481,186.050781 
	C394.934814,195.796570 397.839905,205.345551 400.978729,214.817078 
	C402.031677,217.994370 401.609558,219.811478 398.096069,220.664429 
	C395.196014,221.368454 392.320221,222.326645 389.585510,223.520065 
	C385.890228,225.132706 384.255280,223.889832 383.073792,220.225784 
	C377.044739,201.528778 370.819641,182.894974 364.659180,164.240372 
	C361.370331,154.281372 358.129883,144.305801 354.743866,134.379913 
	C353.803955,131.624680 354.206604,129.970703 357.237640,129.193085 
	C359.486725,128.616104 361.649597,127.706078 363.856506,126.961044 
	C370.839081,124.603760 370.840088,124.606773 373.824646,131.472473 
	C375.266571,131.636841 375.218567,130.282608 375.632355,129.539978 
	C385.203461,112.362312 407.539520,109.627335 420.087585,124.660172 
	C429.717804,136.197372 434.583618,149.865509 432.289612,165.035370 
	C429.559143,183.091080 410.906860,193.192032 394.175262,186.282715 
	C393.582855,186.038071 392.916443,185.972656 392.111481,186.050781 
M411.102417,147.484940 
	C409.955750,144.357361 408.773315,141.247330 406.756348,138.542542 
	C402.754089,133.175522 397.312531,132.088043 391.168488,133.494431 
	C385.420105,134.810242 380.893097,139.621017 380.417419,145.267838 
	C379.673828,154.096207 382.191345,162.123871 387.751038,168.973923 
	C392.133362,174.373352 399.262115,175.475494 405.940125,172.346939 
	C411.603241,169.693848 414.612122,163.726578 413.480133,156.947311 
	C412.988800,154.004868 412.089233,151.130600 411.102417,147.484940 
z"/>
<path fill="#000000" opacity="1.000000" stroke="none" 
	d="
M440.679382,861.904541 
	C445.997498,853.195496 453.771057,849.242432 463.306732,848.710815 
	C478.835968,847.845093 493.200226,850.778748 504.482574,862.588379 
	C505.963043,864.137878 507.152374,865.980896 508.368927,867.761597 
	C509.135101,868.883057 509.759521,870.306580 508.817322,871.495117 
	C505.813110,875.284363 502.413269,878.744446 498.504883,881.578430 
	C496.587433,882.968872 495.485535,880.961853 494.644928,879.601624 
	C489.317017,870.980347 481.215729,866.946899 471.526825,865.660706 
	C466.894165,865.045715 462.481842,865.821167 459.210449,869.559692 
	C454.593018,874.836548 455.769043,881.704895 461.861694,885.269226 
	C466.204651,887.809998 471.100403,889.027527 475.744568,890.849670 
	C479.458313,892.306702 483.277832,893.610962 486.764893,895.507874 
	C498.440125,901.858887 503.083344,911.139771 501.150146,923.570557 
	C499.463470,934.416016 491.573029,942.637207 479.256744,944.575317 
	C464.640106,946.875488 450.634888,944.884766 438.777344,934.929382 
	C433.763458,930.719849 433.700470,929.671692 438.211578,925.074158 
	C440.516144,922.725464 441.959229,918.878906 445.293091,918.340088 
	C448.700562,917.789368 450.004059,922.057068 452.710419,923.594482 
	C459.715668,927.574219 466.985992,929.882202 475.133057,927.855774 
	C479.096710,926.869873 481.703369,924.633118 482.167664,920.454285 
	C482.621460,916.370117 480.805908,913.376526 477.292084,911.368225 
	C473.054199,908.946167 468.326447,907.812439 463.747284,906.304810 
	C458.677094,904.635437 453.605072,902.976746 449.063965,900.094238 
	C436.299591,891.992004 433.171509,878.098389 440.679382,861.904541 
z"/>
<path fill="#000000" opacity="1.000000" stroke="none" 
	d="
M926.449341,492.817322 
	C929.613892,517.809631 915.264038,530.752319 890.409302,529.338257 
	C887.225342,529.157104 886.626160,527.230713 886.508667,524.667480 
	C885.974854,513.022766 885.428040,501.378540 884.878967,489.734467 
	C884.786621,487.775574 885.096191,485.747070 884.126770,483.963348 
	C877.188171,483.832489 872.457092,486.807648 870.308838,492.531250 
	C867.579834,499.802185 869.356995,508.346375 874.353943,512.937988 
	C875.908386,514.366333 879.444641,514.939636 878.079407,518.005249 
	C876.340942,521.908813 874.681763,526.098083 871.230835,528.845215 
	C869.894531,529.908997 868.085205,528.291138 866.716003,527.426819 
	C857.453979,521.580017 853.568604,512.708313 852.879700,502.183868 
	C851.391357,479.446655 864.951721,464.515961 887.745178,463.811768 
	C891.395264,463.699036 895.122131,463.686707 898.707397,464.274750 
	C914.037354,466.789154 923.869629,476.899323 926.449341,492.817322 
M911.800659,499.257782 
	C911.637817,488.925842 906.665588,483.409271 897.697144,483.984497 
	C896.433228,492.225433 898.539917,500.425171 898.478699,508.666138 
	C898.461304,511.016815 900.585327,510.826385 902.266357,510.637848 
	C907.476562,510.053436 910.699219,506.453278 911.800659,499.257782 
z"/>
<path fill="#000000" opacity="1.000000" stroke="none" 
	d="
M757.113831,222.113098 
	C774.211975,205.574951 793.195679,205.569351 808.730286,221.847382 
	C821.018311,234.723480 821.347595,248.946350 809.669861,262.438599 
	C800.907959,272.562012 800.893188,272.576782 791.637024,263.309113 
	C783.767273,255.429581 775.936890,247.510803 768.170776,239.691528 
	C762.864746,243.328644 760.905457,249.514755 762.842163,255.297760 
	C765.414490,262.978882 773.268188,268.460785 781.325317,267.534790 
	C784.873108,267.127075 786.281860,268.295197 786.800964,271.446167 
	C786.962830,272.428680 787.178162,273.402527 787.374573,274.379211 
	C789.224609,283.576721 788.712891,284.292023 779.462097,284.291138 
	C763.457214,284.289581 754.321899,274.230225 747.540710,261.535492 
	C740.793274,248.903961 744.558838,237.369507 752.808777,226.776978 
	C754.032227,225.206131 755.505554,223.829895 757.113831,222.113098 
M801.129700,241.803146 
	C801.442078,235.721161 798.395874,230.808624 792.547180,227.962433 
	C787.235718,225.377686 782.188843,226.231003 777.202026,230.821884 
	C783.043396,237.541565 789.429932,243.688965 795.969727,249.627594 
	C799.129517,247.884872 799.947693,245.148453 801.129700,241.803146 
z"/>
<path fill="#000000" opacity="1.000000" stroke="none" 
	d="
M872.403076,675.890747 
	C866.810730,675.186035 861.949341,673.483398 857.069336,671.777161 
	C853.293335,670.456909 852.293945,668.432190 853.795898,664.557983 
	C858.128296,653.382690 862.211243,642.109741 866.307800,630.844482 
	C868.100769,625.913879 867.671570,625.523193 862.508606,625.201050 
	C856.402649,624.820129 851.628845,627.053467 848.747437,632.386658 
	C845.668213,638.085999 843.400757,644.246887 847.603027,650.290527 
	C850.184631,654.003357 849.581116,656.234497 845.894226,658.241943 
	C845.173279,658.634583 844.581665,659.262634 843.923279,659.772827 
	C837.244202,664.948792 836.532410,664.907410 832.651245,657.411255 
	C825.418335,643.441711 829.805725,630.758301 837.934021,619.020935 
	C845.344116,608.320557 856.306885,605.169739 868.769653,607.092407 
	C877.780334,608.482422 886.177429,611.638977 893.163025,617.778381 
	C909.218201,631.888672 907.315674,659.942017 889.467957,671.824158 
	C884.457275,675.160034 878.840393,676.450562 872.403076,675.890747 
M883.381409,633.238708 
	C882.291870,632.526245 881.346130,631.460266 879.242920,631.899658 
	C875.906311,639.824646 873.117859,648.259033 870.449463,656.677734 
	C877.345886,660.002441 883.169006,658.306396 886.574219,652.337219 
	C890.265259,645.867126 889.352844,639.431641 883.381409,633.238708 
z"/>
<path fill="#000000" opacity="1.000000" stroke="none" 
	d="
M250.125824,248.110214 
	C242.971893,256.173645 236.046722,263.966370 229.166611,271.708405 
	C234.476624,277.158508 240.719147,278.262177 246.394104,275.205475 
	C253.627991,271.309082 257.586121,263.881958 256.285034,255.711945 
	C255.871460,253.114883 256.581635,251.920074 258.816895,251.247742 
	C261.523926,250.433533 264.268494,249.741547 266.964325,248.893387 
	C269.918152,247.964050 271.329224,249.358536 272.014557,252.015671 
	C273.234070,256.743713 273.636505,261.417114 272.403809,266.290314 
	C268.102692,283.294006 249.714294,296.509064 233.134537,294.307892 
	C211.388443,291.420837 193.756149,266.290314 199.819336,246.825211 
	C204.752167,230.988968 220.120636,219.754776 234.584717,221.714355 
	C244.226105,223.020584 251.103485,229.100235 257.375763,235.948792 
	C258.974762,237.694702 258.039703,239.367035 256.742096,240.825287 
	C254.640091,243.187531 252.486435,245.503815 250.125824,248.110214 
M215.353500,255.767349 
	C216.157471,258.274048 216.784988,260.890961 219.655533,262.543152 
	C226.502304,256.723541 231.686630,249.446030 237.796677,243.075089 
	C233.146744,238.199829 228.712158,237.045135 223.986816,239.118530 
	C217.935120,241.773911 214.738693,247.549149 215.353500,255.767349 
z"/>
<path fill="#000000" opacity="1.000000" stroke="none" 
	d="
M458.330078,103.103958 
	C464.833771,100.569267 471.220093,99.408173 477.767456,100.093735 
	C491.646545,101.546959 501.165283,110.511894 502.969421,124.968857 
	C504.398438,136.419586 508.097595,138.539948 492.286926,139.607025 
	C483.995453,140.166626 475.747589,141.387848 467.485138,142.353790 
	C464.565796,142.695084 461.565552,142.739655 458.877350,144.014160 
	C459.719971,151.232895 463.262939,155.659103 469.298126,157.256058 
	C476.537689,159.171692 485.312927,156.934174 488.584290,151.335831 
	C491.239075,146.792679 493.707672,147.066376 497.720734,149.164154 
	C506.676147,153.845505 507.237640,154.945404 500.570679,162.766495 
	C490.521088,174.555801 477.102203,175.993713 463.133759,172.945343 
	C449.807831,170.037231 443.032166,160.180710 439.819916,147.556458 
	C438.115234,140.856857 437.870239,133.937897 439.059753,127.236923 
	C441.044098,116.058189 447.216187,107.739120 458.330078,103.103958 
M475.543274,128.807556 
	C476.703461,128.746185 477.869415,128.738739 479.022827,128.614410 
	C484.924286,127.978241 485.930695,126.100075 483.186737,120.906754 
	C480.550354,115.916969 474.700500,113.894272 467.952545,115.639267 
	C462.321381,117.095451 457.243591,123.230339 457.418884,128.178833 
	C457.507233,130.672058 459.149231,130.766602 460.854553,130.585968 
	C465.462799,130.097855 470.056824,129.475708 475.543274,128.807556 
z"/>
<path fill="#000000" opacity="1.000000" stroke="none" 
	d="
M700.654724,828.279053 
	C689.989014,818.792847 674.685547,823.747742 671.896118,837.455627 
	C671.198792,840.882751 669.902344,842.069214 666.621399,841.426697 
	C665.815796,841.268860 664.961182,841.359314 664.129028,841.339233 
	C655.137451,841.122314 653.828613,839.452698 656.529663,830.816772 
	C661.184021,815.935669 672.917480,809.459412 686.976318,806.807068 
	C702.035095,803.966248 713.988159,811.233093 722.735229,827.254578 
	C736.363281,852.216187 721.695740,879.128174 693.351379,880.775269 
	C684.194458,881.307312 677.099182,876.810364 671.567139,869.681885 
	C660.883423,855.915100 661.165466,854.692505 676.292114,846.742493 
	C684.246765,842.561646 692.036926,838.067444 699.994446,833.892273 
	C702.963318,832.334534 702.976685,830.724731 700.654724,828.279053 
M686.377197,855.483459 
	C684.130859,856.725525 685.130249,858.025024 686.203491,859.481812 
	C690.597046,865.445374 697.051025,866.455994 703.711243,862.304260 
	C709.658508,858.597046 713.129822,849.590332 708.216736,843.704651 
	C701.191101,847.507996 694.086731,851.353943 686.377197,855.483459 
z"/>
<path fill="#000000" opacity="1.000000" stroke="none" 
	d="
M156.443634,590.450439 
	C166.771591,582.855957 166.006622,567.598999 155.119278,561.522583 
	C151.984467,559.773010 150.965652,557.977356 152.610367,554.787354 
	C152.990555,554.049988 153.263535,553.256042 153.568817,552.481445 
	C156.930405,543.952515 158.523239,543.515991 166.212418,548.936401 
	C177.792847,557.099915 180.133331,569.260254 179.760788,582.090576 
	C179.380676,595.181335 172.170807,604.095276 160.364853,609.395325 
	C153.726425,612.375549 146.687866,613.756104 139.474701,613.631409 
	C116.206734,613.229370 99.818993,589.678528 107.280663,567.468628 
	C110.708054,557.266907 118.632607,552.242554 128.517944,549.721680 
	C141.148224,546.500854 141.222244,546.527100 143.801697,559.142578 
	C145.730988,568.578247 147.499847,578.047302 149.260773,587.516296 
	C149.567719,589.166748 149.722290,590.800842 150.997269,592.113892 
	C152.926758,592.417725 154.500687,591.421265 156.443634,590.450439 
M121.321350,576.220825 
	C120.466660,588.814819 127.654442,596.747681 137.580460,593.664734 
	C136.415039,587.218750 135.329483,580.703308 134.017776,574.233704 
	C133.552292,571.937805 134.408005,568.328186 131.448669,567.834595 
	C128.333740,567.315002 125.474106,569.475220 123.370155,571.954590 
	C122.535423,572.938232 122.100746,574.261353 121.321350,576.220825 
z"/>
<path fill="#000000" opacity="1.000000" stroke="none" 
	d="
M180.918091,413.073975 
	C159.392990,424.796722 129.030334,412.430817 123.362671,389.954620 
	C119.272575,373.734619 130.130737,353.152283 145.032913,349.352905 
	C154.417130,346.960327 163.132584,349.916199 171.591339,353.708862 
	C174.633072,355.072723 173.585724,357.503815 172.793030,359.708344 
	C168.852814,370.666534 164.857468,381.604889 160.931580,392.568176 
	C160.330475,394.246826 159.304901,395.869263 159.701431,397.770752 
	C167.320221,401.086517 174.771133,398.562103 178.613541,391.123535 
	C181.754578,385.042755 182.695099,378.765686 178.457932,372.720581 
	C176.878876,370.467773 177.029236,368.819611 179.304184,367.297607 
	C180.270615,366.651093 181.166779,365.897308 182.078781,365.171997 
	C189.274292,359.449219 190.673248,359.765472 194.672974,368.031769 
	C201.397308,381.929108 195.255219,402.426971 180.918091,413.073975 
M149.171326,388.586334 
	C151.638687,381.607391 154.106064,374.628448 156.556625,367.697021 
	C147.870270,364.407074 142.032837,366.869751 139.244553,374.275757 
	C136.111649,382.597076 139.247559,389.971771 147.303162,392.834290 
	C147.825226,391.648438 148.353806,390.447815 149.171326,388.586334 
z"/>
<path fill="#000000" opacity="1.000000" stroke="none" 
	d="
M794.146729,707.998535 
	C803.213501,702.514954 812.469604,701.846252 821.739624,705.808838 
	C835.316589,711.612610 846.003601,720.554321 849.441040,735.699036 
	C854.653625,758.664307 829.258911,783.089478 806.813049,776.304138 
	C791.567505,771.695496 779.453186,762.290833 775.949829,745.940735 
	C772.409607,729.418823 781.063599,717.563599 794.146729,707.998535 
M814.180176,723.228210 
	C805.353577,720.269226 799.637451,722.017700 795.180420,729.039978 
	C790.985107,735.650024 791.865906,741.895569 797.900391,748.437256 
	C801.445129,752.279907 805.553345,755.364929 810.311646,757.529419 
	C817.545593,760.820129 824.531738,759.188782 829.071594,753.228394 
	C833.891052,746.900879 833.770447,740.396545 828.657410,734.051636 
	C824.928162,729.423950 820.149170,726.139465 814.180176,723.228210 
z"/>
<path fill="#000000" opacity="1.000000" stroke="none" 
	d="
M366.636169,893.309998 
	C350.939636,875.298584 363.042053,842.786072 380.278809,834.872803 
	C393.980988,828.582275 406.821930,831.835144 418.383087,840.130371 
	C429.281921,847.950317 433.036316,859.122314 430.375885,872.272705 
	C427.203705,887.953003 420.679138,901.501099 403.604156,905.493652 
	C389.413849,908.811707 377.067780,903.882263 366.636169,893.309998 
M384.449677,854.982178 
	C380.796204,860.702637 378.631287,866.958191 378.274078,873.719788 
	C377.847565,881.792786 381.054352,886.346802 388.475433,888.824768 
	C395.809021,891.273438 401.961853,889.277527 406.226318,882.730469 
	C409.733765,877.345703 411.696716,871.369263 411.894135,864.892822 
	C412.142883,856.730896 409.566559,852.352417 403.090729,849.820007 
	C395.522949,846.860596 390.349121,848.157166 384.449677,854.982178 
z"/>
<path fill="#000000" opacity="1.000000" stroke="none" 
	d="
M205.689117,676.387939 
	C222.319916,677.263733 231.150574,699.168152 225.346725,709.286926 
	C218.030579,722.042358 203.689636,725.428833 192.413986,716.138855 
	C187.625092,712.193237 183.868759,707.268982 179.701981,702.730957 
	C174.844345,697.440552 171.584915,696.492676 168.305466,699.191284 
	C165.246078,701.708740 165.595764,705.995667 169.143158,711.373169 
	C172.610733,716.629517 177.538971,719.874573 183.374603,721.815063 
	C186.655701,722.906067 187.417816,724.367554 185.765106,727.698425 
	C180.716003,737.874817 179.319077,738.516235 169.564774,732.302429 
	C158.144516,725.027344 150.930511,714.799683 149.617035,701.063599 
	C148.919662,693.770813 152.176697,687.938477 158.232086,684.140137 
	C167.259171,678.477783 176.562515,673.252686 185.796280,667.924622 
	C189.068680,666.036438 191.321625,663.971008 188.626404,660.034058 
	C187.526764,658.427795 188.267975,657.379028 189.508057,656.200073 
	C197.128067,648.955383 200.406906,649.637512 205.686234,658.787476 
	C209.194336,664.867676 207.852432,670.445312 205.689117,676.387939 
M184.372025,689.809448 
	C187.693207,694.539917 191.813202,698.583191 196.121460,702.330383 
	C199.361115,705.148132 203.341904,704.655579 206.765121,702.184875 
	C210.275543,699.651245 210.481766,696.099121 209.039429,692.334351 
	C206.659805,686.122986 200.508713,682.980286 194.087799,684.721191 
	C190.678909,685.645386 187.623886,687.351685 184.372025,689.809448 
z"/>
<path fill="#000000" opacity="1.000000" stroke="none" 
	d="
M297.714142,159.669373 
	C307.780182,151.925552 318.414734,147.475998 330.996826,150.832886 
	C355.502411,157.370972 367.817078,192.191864 351.544281,210.555038 
	C336.009552,228.085342 310.405884,231.336166 294.985260,208.429062 
	C288.829987,199.285522 284.388672,189.586075 286.634979,177.998032 
	C288.071533,170.587158 292.050446,164.865921 297.714142,159.669373 
M305.899597,188.436859 
	C308.053345,193.725159 310.805664,198.662796 314.824799,202.765762 
	C319.856201,207.902115 325.498199,208.944839 331.669373,206.061966 
	C338.298187,202.965286 341.705475,197.907379 340.681976,190.970581 
	C339.317871,181.724899 334.859802,173.991699 327.032318,168.615982 
	C324.096344,166.599625 320.707062,165.997635 317.021912,167.062637 
	C309.339355,169.282867 301.621033,175.448380 305.899597,188.436859 
z"/>
<path fill="#000000" opacity="1.000000" stroke="none" 
	d="
M291.121399,875.235229 
	C293.692596,873.634338 294.668915,875.445923 295.802368,876.865112 
	C297.936371,879.536926 300.619659,881.475037 303.835236,882.585144 
	C308.908844,884.336609 314.562592,880.341003 314.998535,874.971558 
	C315.167664,872.888367 313.761322,872.452271 312.496246,871.758545 
	C308.846741,869.757507 305.220367,867.704041 301.489258,865.865234 
	C298.723602,864.502136 297.967316,862.999146 299.448883,859.974915 
	C304.177246,850.323364 304.066620,850.268250 313.622131,855.147278 
	C316.406342,856.568909 319.187408,857.996704 322.400787,859.642334 
	C328.166016,848.885071 333.732208,838.495300 339.302460,828.107666 
	C341.819275,823.414124 344.458649,818.781677 346.822388,814.012390 
	C348.239441,811.153259 349.871216,810.499268 352.712189,812.114197 
	C368.174438,820.903625 366.280457,816.352356 358.858887,831.138916 
	C353.260742,842.292603 347.206055,853.221008 341.182281,864.154846 
	C339.368439,867.447144 339.363342,869.638794 343.292389,870.984192 
	C347.142181,872.302429 347.546234,874.702087 345.212524,877.827393 
	C344.916931,878.223206 344.726044,878.698425 344.495056,879.141235 
	C340.954773,885.928101 340.957367,885.922424 333.748901,883.140503 
	C333.313263,882.972412 332.796631,883.014221 332.063812,882.928772 
	C331.076843,884.998779 330.174042,887.115540 329.087402,889.133301 
	C323.953461,898.666626 315.145905,902.439331 304.670654,899.583008 
	C297.807709,897.711670 291.700378,894.356812 286.445892,889.592712 
	C281.905457,885.476013 281.970306,884.253540 286.229370,880.004944 
	C287.761902,878.476196 289.314484,876.967529 291.121399,875.235229 
z"/>
<path fill="#000000" opacity="1.000000" stroke="none" 
	d="
M921.668213,538.771118 
	C925.165588,537.873047 926.541321,538.984985 926.021667,542.221619 
	C925.389099,546.162415 924.713745,550.096924 924.131531,554.045166 
	C923.664673,557.210632 921.311951,557.802917 918.744324,558.264221 
	C904.008362,560.911438 889.276672,563.583008 874.545715,566.257812 
	C873.768738,566.398865 872.826111,566.248962 872.368103,567.375305 
	C873.368286,569.450073 875.615906,569.936707 877.436157,570.913330 
	C889.610413,577.445007 901.790039,583.968262 914.043152,590.349792 
	C916.765259,591.767517 918.127686,593.352173 917.427734,596.597473 
	C916.458130,601.093628 916.558228,605.815491 914.766846,610.158386 
	C912.018982,610.375000 910.194519,608.711853 908.221313,607.623718 
	C890.002686,597.576538 871.857971,587.394775 853.607544,577.406128 
	C850.095337,575.483826 848.236633,573.447021 849.492126,569.142151 
	C850.413696,565.982544 850.731812,562.592163 850.907959,559.282837 
	C851.164246,554.467712 853.651001,552.585388 858.246094,551.688293 
	C879.288330,547.580322 900.268311,543.154053 921.668213,538.771118 
z"/>
<path fill="#000000" opacity="1.000000" stroke="none" 
	d="
M191.549713,323.280396 
	C195.286362,324.037628 198.620712,324.682861 203.495544,325.626160 
	C195.742828,316.242645 189.008606,308.080231 182.260620,299.929199 
	C178.759476,295.700104 175.293213,291.439758 171.694290,287.295013 
	C169.924118,285.256378 169.581451,283.460632 171.155396,281.067505 
	C173.693176,277.208923 175.926483,273.150055 178.118393,269.461823 
	C180.788315,269.239868 181.556244,270.943665 182.548248,272.171478 
	C196.243622,289.122406 209.851028,306.144806 223.622086,323.033783 
	C225.946625,325.884644 226.598969,328.208496 224.312958,331.398621 
	C221.800476,334.904785 219.675125,338.698425 217.520340,342.446899 
	C216.294769,344.578888 214.758057,345.608582 212.238419,345.137695 
	C190.021027,340.985565 167.796280,336.872955 145.580505,332.712341 
	C144.476318,332.505554 143.434937,331.963348 141.671112,331.327423 
	C144.025192,325.940125 147.010773,321.230774 150.315964,316.753479 
	C151.708191,314.867554 153.993759,315.734772 155.926254,316.119019 
	C167.669617,318.453857 179.407639,320.815582 191.549713,323.280396 
z"/>
<path fill="#000000" opacity="1.000000" stroke="none" 
	d="
M271.380981,826.547363 
	C273.698090,828.186279 275.731689,829.609619 277.672485,830.968018 
	C280.062408,830.212341 280.866364,828.272888 282.006470,826.700256 
	C286.895844,819.955872 291.866455,813.266113 296.588623,806.405884 
	C301.515228,799.248596 299.850037,793.889465 291.493622,791.852478 
	C286.671448,790.677002 286.684845,788.654602 287.855988,784.856018 
	C290.924072,774.904846 292.767426,773.985352 302.219452,778.567017 
	C304.303497,779.577209 306.301392,780.834412 308.170776,782.206909 
	C320.086670,790.955750 322.140198,802.008972 313.871979,814.292419 
	C308.571106,822.167542 303.092804,829.948303 297.245087,837.419983 
	C294.128540,841.401917 294.080170,843.988953 298.702393,846.307800 
	C301.926971,847.925537 301.719147,849.766846 299.671417,852.584534 
	C293.959137,860.444702 294.099670,860.546814 285.176331,855.574280 
	C282.614929,856.869873 281.289642,859.472961 279.886444,861.809143 
	C277.785400,865.307251 275.409088,865.743286 272.082153,863.629944 
	C268.483276,861.344055 264.131897,860.311768 260.787201,857.089783 
	C262.766693,852.159424 267.175201,848.858643 269.099731,843.493164 
	C264.984222,840.535583 260.883606,837.461243 256.643799,834.592590 
	C254.326294,833.024536 254.181305,831.568604 255.652328,829.232910 
	C261.632111,819.738586 261.570038,819.699463 271.380981,826.547363 
z"/>
<path fill="#000000" opacity="1.000000" stroke="none" 
	d="
M296.735413,228.980072 
	C299.992493,225.494812 302.322754,227.006561 304.928894,229.511200 
	C312.133759,236.435455 312.078674,238.176682 303.901093,244.195099 
	C293.851196,251.591461 285.412537,250.730911 276.843506,240.575531 
	C261.700897,222.629578 246.846939,204.438446 231.993332,186.250961 
	C225.504349,178.305542 225.640060,178.194702 233.777939,171.479111 
	C239.979874,166.361160 239.949966,166.385620 245.154770,172.750778 
	C259.491333,190.283447 273.830688,207.813980 288.236176,225.289932 
	C290.289032,227.780334 292.231964,230.997772 296.735413,228.980072 
z"/>
<path fill="#000000" opacity="1.000000" stroke="none" 
	d="
M857.889526,686.055298 
	C872.545288,694.037964 886.836975,701.922607 901.252380,709.574280 
	C904.898010,711.509338 905.331909,713.363708 903.370972,716.974792 
	C897.104614,728.514709 897.190857,728.681702 885.631226,722.460449 
	C867.593079,712.752441 849.625183,702.914001 831.638916,693.109802 
	C824.544983,689.242981 824.533264,689.192871 819.048035,694.907898 
	C818.068420,695.928528 817.152100,696.084534 815.946594,695.578735 
	C814.718567,695.063416 813.472046,694.591919 812.234070,694.099976 
	C803.744690,690.726562 803.350464,689.630615 807.717590,681.544617 
	C813.549866,670.745544 822.616028,667.684509 833.765564,673.180359 
	C841.827209,677.154175 849.644897,681.622986 857.889526,686.055298 
z"/>
<path fill="#000000" opacity="1.000000" stroke="none" 
	d="
M630.147583,832.019287 
	C641.253540,828.319214 641.307617,828.300537 645.012817,839.044617 
	C650.981812,856.352905 656.808289,873.710632 662.849121,890.993591 
	C664.010193,894.315308 663.779846,896.308228 659.994446,897.236755 
	C657.421082,897.867981 654.871277,898.766357 652.468811,899.884399 
	C648.404968,901.775574 646.225708,900.674561 645.510376,896.252136 
	C645.340332,895.201172 645.074036,893.947510 643.228699,893.114075 
	C641.598145,902.045288 636.008850,906.983032 627.360046,908.814575 
	C623.189148,909.697937 620.448120,908.951782 620.141113,904.127563 
	C620.088562,903.300598 619.744141,902.473877 619.791870,901.662109 
	C619.957397,898.841919 617.975586,895.991821 619.330566,893.330505 
	C620.801941,890.440735 624.173645,891.945007 626.610474,891.085876 
	C634.792969,888.201233 638.328125,882.077515 636.193542,872.913025 
	C633.620483,861.865967 629.353516,851.336548 625.802734,840.589111 
	C623.728577,834.311157 623.663025,834.332825 630.147583,832.019287 
z"/>
<path fill="#000000" opacity="1.000000" stroke="none" 
	d="
M132.401062,668.611816 
	C131.567505,666.555664 130.934113,664.840576 130.302109,663.124939 
	C127.170036,654.622681 127.170151,654.622620 135.348785,649.879944 
	C126.464386,648.374084 121.496918,643.145752 119.289124,635.166443 
	C117.641724,629.212524 118.668472,627.680176 124.674500,626.812378 
	C125.332382,626.717285 126.000648,626.694031 126.658554,626.599060 
	C134.375793,625.484680 134.375534,625.482727 136.830490,632.971985 
	C139.639923,641.542603 146.680679,645.066040 156.500351,641.936890 
	C167.258591,638.508728 177.855743,634.540039 188.391357,630.466125 
	C192.304977,628.952942 193.974854,629.795776 195.365997,633.682312 
	C199.940170,646.461609 200.037811,646.342285 187.152847,651.030640 
	C171.066193,656.883972 155.043045,662.911926 138.955032,668.761414 
	C136.962585,669.485901 134.782593,671.425110 132.401062,668.611816 
z"/>
<path fill="#000000" opacity="1.000000" stroke="none" 
	d="
M514.898682,157.264954 
	C515.854065,140.377258 516.846497,123.964218 517.662109,107.542389 
	C518.093628,98.855263 518.434204,98.419304 526.920654,99.286118 
	C527.085999,99.303001 527.250244,99.331642 527.415588,99.348740 
	C535.791687,100.214790 535.791687,100.214714 536.529968,108.224899 
	C538.329285,107.827896 539.037903,106.171478 540.203003,105.101685 
	C545.936707,99.836990 552.852539,98.280945 559.612305,101.469154 
	C567.118713,105.009460 560.094055,110.637520 560.151184,115.302788 
	C560.197205,119.054016 557.448975,118.956474 554.412476,118.147942 
	C544.708008,115.563919 538.479797,119.174652 536.183777,128.992661 
	C533.519714,140.384354 534.193420,152.111237 533.393677,163.685974 
	C532.871582,171.242218 532.817871,171.593033 525.292175,170.874756 
	C514.505737,169.845245 514.505615,169.845261 514.817383,158.732788 
	C514.826721,158.400360 514.847107,158.068237 514.898682,157.264954 
z"/>
<path fill="#000000" opacity="1.000000" stroke="none" 
	d="
M561.071167,848.752075 
	C568.704224,849.483154 572.931152,853.638489 572.947083,860.000305 
	C572.961487,865.719971 568.051636,870.514709 561.586609,871.094299 
	C555.959717,871.598816 551.045776,868.310303 549.819336,863.219543 
	C548.289978,856.871521 550.884460,851.729065 556.775696,849.611511 
	C558.009033,849.168152 559.355042,849.038330 561.071167,848.752075 
z"/>
<path fill="#000000" opacity="1.000000" stroke="none" 
	d="
M599.181519,159.747101 
	C607.163513,160.483292 611.682251,163.897552 612.306091,169.330872 
	C613.060364,175.899887 609.432068,181.041260 603.266418,182.140350 
	C596.940857,183.267929 590.480042,179.148163 589.171814,173.152802 
	C587.858582,167.134628 591.726624,161.738174 599.181519,159.747101 
z"/>
</svg>