<svg xmlns="http://www.w3.org/2000/svg" width="1em" height="1em" viewBox="0 0 256 256" id="leetcode">
  <rect x="0" y="0" width="256" height="256" fill="rgba(255, 255, 255, 0)" />
  <g fill="none">
    <rect width="256" height="256" fill="#fff" rx="60" />
    <path fill="#B3B1B0" d="M230 154.355c0-.742-.564-1.346-1.26-1.346H118.676c-.696 0-1.26.604-1.26 1.346s.563 1.346 1.26 1.346H228.74c.696.001 1.26-.603 1.26-1.346z"></path>
    <path fill="#E7A41F" d="m51.482 198.187 56.313 56.361c.973.979 2.318 1.452 3.803 1.452 1.485 0 2.83-.512 3.805-1.494l34.588-34.637c.51-.514.492-1.365-.039-1.9-.531-.535-1.375-.553-1.884-.039l-35.676 35.607c-.462.467-1.102.662-1.809.662s-1.346-.195-1.81-.662l-56.298-56.363c-.463-.467-.696-1.15-.696-1.863 0-.713.233-1.357.696-1.824l56.285-56.38c.463-.467 1.116-.645 1.822-.645s1.346.195 1.809.662l35.676 35.606c.51.515 1.354.497 1.885-.038.531-.536.549-1.387.039-1.901l-34.588-34.636a4.994 4.994 0 0 0-2.392-1.33l-.034-.007 33.447-33.503c.512-.514.494-1.366-.037-1.901-.531-.535-1.376-.552-1.887-.038l-134.018 134.1C50.509 141.458 50 142.813 50 144.311c0 1.498.509 2.896 1.482 3.876z"></path>
    <path fill="#070706" d="M80.115 222.814a2.109 2.109 0 0 1-.474-.361c-1.327-1.333-2.66-2.66-3.984-3.997-1.989-2.008-2.302-4.937-.786-7.32a6 6 0 0 1 .839-1.004L165.333 0.489c.625-.626 1.498-.652 2.079-.067.56.563.527 1.455-.078 2.066-.769.776-1.539 1.55-2.309 2.325-.041.122-.14.2-.225.287-.863.876-1.75 1.729-2.601 2.618-.111.116-.262.186-.372.305-1.423 1.423-2.863 2.83-4.266 4.272-1.135 1.167-1.097 2.938.068 4.127 1.308 1.336 2.639 2.65 3.961 3.974.067.067.136.132.204.198.468.303.474 1.25.183 1.671-.321.465-.74.75-1.333.728-.199-.006-.363-.086-.529-.179z"></path>
  </g>
</svg>
